<?xml version="1.0" encoding="utf-8"?>
<!-- Generator: Adobe Illustrator 21.1.0, SVG Export Plug-In . SVG Version: 6.00 Build 0)  -->
<svg version="1.1"
	 id="svg3682" inkscape:version="0.92.1 r15371" sodipodi:docname="logo.svg" xmlns:cc="http://creativecommons.org/ns#" xmlns:dc="http://purl.org/dc/elements/1.1/" xmlns:inkscape="http://www.inkscape.org/namespaces/inkscape" xmlns:rdf="http://www.w3.org/1999/02/22-rdf-syntax-ns#" xmlns:sodipodi="http://sodipodi.sourceforge.net/DTD/sodipodi-0.dtd" xmlns:svg="http://www.w3.org/2000/svg"
	 xmlns="http://www.w3.org/2000/svg" xmlns:xlink="http://www.w3.org/1999/xlink" x="0px" y="0px" height="285.3" width="441" viewBox="0 0 441 285.3"
	 style="enable-background:new 0 0 441 285.3;" xml:space="preserve">
<style type="text/css">
	.st0{fill:#74BD57;}
</style>
<sodipodi:namedview  bordercolor="#666666" borderopacity="1" gridtolerance="10" guidetolerance="10" id="namedview3684" inkscape:current-layer="svg3682" inkscape:cx="137.64735" inkscape:cy="186.85099" inkscape:pageopacity="0" inkscape:pageshadow="2" inkscape:window-height="1089" inkscape:window-maximized="1" inkscape:window-width="2048" inkscape:window-x="2040" inkscape:window-y="-8" inkscape:zoom="4.1369863" objecttolerance="10" pagecolor="#ffffff" scale-x="0.7" showgrid="false" viewbox-y="-0.6">
	</sodipodi:namedview>
<path id="path3680" inkscape:connector-curvature="0" class="st0" d="M235.5,202.3l4.1,7.6c0.1,0.3,0.1,0.4,0.1,0.4l-0.1-0.3
	l35.7,65.5c9.6,18.3,22,6.2,28.5-6.3L438.5,15.9c4.5-8.5,1.3-15.3-7.2-15.3H330.3c-8.5,0-19,6.9-23.5,15.3L227,166.4
	c-0.6,1.2-1.2,2.4-1.6,3.4L140.7,19.3c-4.7-8.4-15.7-15.2-24.6-15.2H10.2C1.4,4.1-2,10.9,2.7,19.3l84.8,150.8
	c4.7,8.4,15.8,15.2,24.6,15.2h90.7C220.5,185.4,230.4,195,235.5,202.3L235.5,202.3z"/>
</svg>
