<?xml version="1.0" encoding="utf-8"?>
<!-- Generator: Adobe Illustrator 21.1.0, SVG Export Plug-In . SVG Version: 6.00 Build 0)  -->
<svg version="1.1" id="Lager_1" xmlns="http://www.w3.org/2000/svg" xmlns:xlink="http://www.w3.org/1999/xlink" x="0px" y="0px"
	 height="141.2" width="528.2" viewBox="0 0 528.2 141.2" style="enable-background:new 0 0 528.2 141.2;" xml:space="preserve">
<style type="text/css">
	.st0{fill:#4A4A4A;}
</style>
<path class="st0" d="M67.6,137.4L126.8,9.2H97.8L63.7,82L29.3,9.2H0.3l59.4,128.2H67.6z M232,139.2l-39.8-46.9l32.7-33.6h-32
	l-23.9,25.9V0.3h-26.2v138.9h26.2v-27.1l5.4-5.6l26.9,32.7H232z M246.3,139.2V0.3h23.2v138.9H246.3z M354.8,59.7h18.1v79.1h-20v-7.7
	c-7.5,6.2-17.3,9.9-27.9,9.9c-23.9,0-43.1-18.7-43.1-41.8c0-23.3,19.2-41.8,43.1-41.8c10.5,0,20.3,3.7,27.9,9.9L354.8,59.7z
	 M341.9,113.4c4-4.2,6-9.5,6-15.2c0-5.7-2-11.1-6-15.2c-3.8-4-8.9-6.2-14.4-6.2s-10.6,2.2-14.6,6.2c-3.8,4-6,9.5-6,15.2
	c0,5.7,2.2,11,6,15.2c4,4,9.1,6.2,14.6,6.2S338.1,117.4,341.9,113.4z M383.5,126.7c9.9,9.7,23.6,14.3,38.1,14.3
	c16.4,0,29.6-12.1,29.6-24.8c0-13.6-10.6-21.1-22-24.4c-9.3-3.1-18.1-4.2-17.1-10.1c1.1-8.4,11.7-9.4,27.4,1.7l10.8-16.7
	c-10.8-6.4-18.2-9.4-32-9.4c-15.3,0-28.5,9.5-28.5,24c0,15.2,10.8,20,26.4,24.8c6,1.8,11.7,3.7,11.7,9.5c0,9.9-17.9,9.4-29.6-3.9
	L383.5,126.7z M460.2,126.7c9.9,9.7,23.6,14.3,38.1,14.3c16.4,0,29.6-12.1,29.6-24.8c0-13.6-10.6-21.1-22-24.4
	c-9.3-3.1-18.1-4.2-17.1-10.1c1.1-8.4,11.7-9.4,27.4,1.7L527,66.6c-10.8-6.4-18.2-9.4-32-9.4c-15.3,0-28.5,9.5-28.5,24
	c0,15.2,10.8,20,26.4,24.8c6,1.8,11.7,3.7,11.7,9.5c0,9.9-17.9,9.4-29.6-3.9L460.2,126.7z"/>
</svg>
